<svg xmlns="http://www.w3.org/2000/svg" data-name="Camada 1" viewBox="0 0 1920 1080"><path d="m436.11 701.94-99.92-.03c-58.68-.14-106.39-47.96-106.39-106.59 0-6.81.64-13.48 1.88-19.94-30.38-18.82-50.67-52.46-50.67-90.71 0-58.63 47.71-106.45 106.35-106.59l136.55.02 12.21-.03c37.07 0 67.23 30.16 67.23 67.25s-30.16 67.23-67.23 67.23H336.2c-33.98.09-63.26 20.82-75.9 50.27 8.5 2.98 17.63 4.62 27.12 4.64l136.49.03 12.21-.02c37.07 0 67.23 30.16 67.23 67.25s-30.16 67.23-67.23 67.23ZM254.16 585.9a86.19 86.19 0 0 0-.53 9.42c0 45.52 37.05 82.65 82.59 82.76l99.89.03c23.93 0 43.4-19.47 43.4-43.4s-19.47-43.41-43.4-43.41l-148.73-.02c-11.59-.03-22.76-1.91-33.22-5.38Zm33.22-183.99c-45.51.11-82.54 37.24-82.54 82.76 0 27.53 13.55 51.99 34.31 67.04 16.68-37.01 53.89-62.9 97.02-63.01h99.95c23.93 0 43.4-19.47 43.4-43.4s-19.47-43.41-43.4-43.41l-12.21.03-136.52-.02Zm300.86 140.07c0 33.61 21.08 51.62 44.9 51.62 27.49 0 37.57-18.62 40.93-30.24l25.36 11c-7.03 21.09-28.11 45.82-66.29 45.82-42.76 0-74.23-33.59-74.23-78.2s32.07-77.89 73.93-77.89c39.1 0 59.25 24.44 65.37 46.73l-25.97 11c-3.66-14.35-14.36-31.16-39.4-31.16-23.22 0-44.6 17.1-44.6 51.31Zm162.17 73.62H721.7V394.44h28.71v91.34c10.69-15.58 27.8-21.38 44.6-21.38 35.13 0 52.54 25.35 52.54 58.03v93.17h-28.71v-88.29c0-20.47-8.55-36.96-34.21-36.96-21.99 0-33.6 17.11-34.21 38.79v86.45Zm167.05-84 39.71-5.8c8.86-1.23 11.3-5.8 11.3-11 0-14.35-9.46-26.27-31.77-26.27-20.16 0-31.46 12.52-33.3 29.64l-27.49-6.42c3.05-28.1 28.4-47.65 60.17-47.65 43.99 0 61.09 25.04 61.09 53.76v73.62c0 12.83 1.23 20.47 1.84 24.13H970.9c-.61-3.66-1.53-9.17-1.53-19.86-6.42 10.4-21.08 24.44-47.35 24.44-29.94 0-49.18-20.76-49.18-43.99 0-26.27 19.24-40.93 44.59-44.59Zm51.02 21.07v-6.72l-44.9 6.72c-12.22 1.83-21.38 8.86-21.38 22 0 11 9.16 21.38 23.82 21.38 23.52 0 42.46-11.3 42.46-43.38Zm100.46-84h31.77v25.97h-31.77v76.37c0 13.44 5.5 20.16 20.47 20.16 3.67 0 8.86-.61 11.3-1.23v24.44c-2.44.92-9.77 2.75-19.55 2.75-25.05 0-40.93-15.27-40.93-41.85v-80.64h-28.11v-25.97h7.94c15.89 0 22.61-9.77 22.61-22.61v-23.82h26.27v46.42Zm58.63 146.93V394.44h28.41v95c7.02-13.14 24.13-25.04 48.57-25.04 44.59 0 67.5 34.21 67.5 76.97s-24.74 78.2-68.42 78.2c-21.68 0-38.49-9.46-47.65-25.35v21.38h-28.41Zm71.78-125.84c-25.35 0-43.68 19.84-43.68 51.62s18.32 52.54 43.68 52.54 43.37-20.78 43.37-52.54-16.8-51.62-43.37-51.62Zm133.45 41.84 39.71-5.8c8.86-1.23 11.3-5.8 11.3-11 0-14.35-9.47-26.27-31.77-26.27-20.16 0-31.47 12.52-33.3 29.64l-27.49-6.42c3.06-28.1 28.41-47.65 60.18-47.65 43.99 0 61.09 25.04 61.09 53.76v73.62c0 12.83 1.23 20.47 1.84 24.13h-28.11c-.61-3.66-1.53-9.17-1.53-19.86-6.42 10.4-21.08 24.44-47.35 24.44-29.94 0-49.18-20.76-49.18-43.99 0-26.27 19.24-40.93 44.6-44.59Zm51.01 21.07v-6.72l-44.9 6.72c-12.22 1.83-21.38 8.86-21.38 22 0 11 9.16 21.38 23.82 21.38 23.52 0 42.46-11.3 42.46-43.38Zm90.69 62.93h-28.71V468.67h28.1v21.09c10.7-18.32 28.11-25.35 45.21-25.35 35.13 0 52.54 25.35 52.54 58.03v93.17h-28.71v-88.29c0-20.47-8.55-36.96-34.21-36.96-22.6 0-34.21 18.03-34.21 40.33v84.92Zm200.66-84.91 63.84 84.92h-36.04L1655 550.85l-20.47 20.47v44.3h-28.41V394.46h28.41v139.3l63.54-65.07h39.71l-62.62 62.02Z" style="fill:#fff;stroke-width:0"/></svg>